<?xml version="1.0" encoding="utf-8"?>
<!-- Generator: Adobe Illustrator 25.0.0, SVG Export Plug-In . SVG Version: 6.00 Build 0)  -->
<svg version="1.1" id="Layer_1" xmlns="http://www.w3.org/2000/svg"
	xmlns:xlink="http://www.w3.org/1999/xlink" x="0px" y="0px"
	viewBox="0 0 125 131.2" style="enable-background:new 0 0 125 131.2;" xml:space="preserve">
<style type="text/css">
	.st0{fill:none; opacity: 0.25;}
	.st1{fill:#1C3948; opacity: 0.25;}
	.st2{fill:url(#SVGID_1_);opacity: 0.25;}
	.st3{fill:url(#SVGID_2_);opacity: 0.25;}
	.st4{fill:url(#SVGID_3_);opacity: 0.25;}
	.st5{fill:url(#SVGID_4_);opacity: 0.25;}
	.st6{fill:url(#SVGID_5_);opacity: 0.25;}
	.st7{fill:url(#SVGID_6_);opacity: 0.25;}
	.st8{fill:url(#SVGID_7_);opacity: 0.25;}
	.st9{fill:url(#SVGID_8_);opacity: 0.25;}
	.st10{fill:url(#SVGID_9_);opacity: 0.25;}
	.st11{fill:url(#SVGID_10_);opacity: 0.25;}
	.st12{fill:url(#SVGID_11_);opacity: 0.25;}
	.st13{fill:url(#SVGID_12_);opacity: 0.25;}
	.st14{fill:url(#SVGID_13_);opacity: 0.25;}
	.st15{fill:url(#SVGID_14_);opacity: 0.25;}
	.st16{fill:url(#SVGID_15_);opacity: 0.25;}
	.st17{fill:url(#SVGID_16_);opacity: 0.25;}
</style>
<pattern  x="-606.3" y="-763.7" width="80" height="84" patternUnits="userSpaceOnUse" id="New_Pattern_2" viewBox="40 -109 80 84" style="overflow:visible;">
	<g>
		<rect x="40" y="-109" class="st0" width="80" height="84"/>
		<g>
			<path class="st1" d="M160-25c0,13.8-11.2,25-25.1,25C129.4,0,124.2-1.9,120-5c-4.2,3.1-9.3,5-15,5C91.2,0,80-11.2,80-25
				c0-13.8,11.2-25,25.1-25c5.6,0,10.8,1.8,14.9,4.9c4.2-3.1,9.4-5,15-5C148.8-50,160-38.8,160-25z M119.4-5.5
				c-1.6-1.3-3-2.7-4.3-4.4c-2.9,1.9-6.3,3-10,3C95-6.8,86.8-15,86.8-25c0-10,8.2-18.2,18.2-18.2c3.7,0,7.1,1.1,10,3
				c1.2-1.6,2.7-3.1,4.3-4.4c-4-3-8.9-4.7-14.3-4.7c-13.4,0-24.3,10.9-24.3,24.2c0,13.3,10.9,24.2,24.3,24.2
				C110.4-0.8,115.3-2.5,119.4-5.5z M111.4-33.6c0.8-2.2,1.9-4.2,3.2-6c-2.7-1.8-6-2.8-9.5-2.8c-9.6,0-17.4,7.8-17.4,17.4
				c0,9.6,7.8,17.4,17.4,17.4c3.5,0,6.8-1,9.5-2.8c-1.3-1.9-2.4-3.9-3.2-6.1c-1.8,1.3-3.9,2.1-6.3,2.1c-5.9,0-10.6-4.7-10.6-10.6
				s4.8-10.6,10.6-10.6C107.4-35.6,109.6-34.9,111.4-33.6z M105.1-34.9c-5.4,0-9.8,4.4-9.8,9.8c0,5.4,4.4,9.8,9.8,9.8
				c2.3,0,4.4-0.8,6-2.1c-0.8-2.4-1.2-5-1.2-7.7c0-2.7,0.4-5.3,1.2-7.8C109.5-34.1,107.4-34.9,105.1-34.9z M115.2-10.9
				c4.3-3.2,7.1-8.3,7.1-14c0-5.8-2.8-10.9-7.2-14.1c-2.8,3.9-4.5,8.8-4.5,14C110.7-19.8,112.4-14.9,115.2-10.9z M126-2.5
				c6.4-5.4,10-13.2,10-21.5c0-9-4.4-17.5-11.7-22.8c-3.4,1.7-6.4,4.1-8.7,7.1c4.6,3.3,7.5,8.7,7.5,14.7c0,6-2.9,11.3-7.4,14.6
				C118.4-6.9,121.9-4.2,126-2.5z M159.2-25c0-13.3-10.9-24.2-24.3-24.2c-3.5,0-6.8,0.7-9.8,2.1c7.3,5.4,11.6,14,11.6,23.1
				c0,8.4-3.6,16.3-9.9,21.8c2.5,0.9,5.3,1.4,8.1,1.4C148.3-0.8,159.2-11.7,159.2-25z"/>
			<path class="st0" d="M115.1-9.8c-2.9,1.9-6.3,3-10,3C95-6.8,86.8-15,86.8-25c0-10,8.2-18.2,18.2-18.2c3.7,0,7.1,1.1,10,3
				c1.2-1.6,2.7-3.1,4.3-4.4c-4-3-8.9-4.7-14.3-4.7c-13.4,0-24.3,10.9-24.3,24.2c0,13.3,10.9,24.2,24.3,24.2
				c5.4,0,10.3-1.7,14.3-4.7C117.8-6.7,116.3-8.2,115.1-9.8z"/>
			<path class="st0" d="M114.6-39.5c-2.7-1.8-6-2.8-9.5-2.8c-9.6,0-17.4,7.8-17.4,17.4c0,9.6,7.8,17.4,17.4,17.4
				c3.5,0,6.8-1,9.5-2.8c-1.3-1.9-2.4-3.9-3.2-6.1c-1.8,1.3-3.9,2.1-6.3,2.1c-5.9,0-10.6-4.7-10.6-10.6s4.8-10.6,10.6-10.6
				c2.4,0,4.6,0.8,6.3,2.1C112.2-35.7,113.3-37.7,114.6-39.5z"/>
			<path class="st0" d="M95.2-25.1c0,5.4,4.4,9.8,9.8,9.8c2.3,0,4.4-0.8,6-2.1c-0.8-2.4-1.2-5-1.2-7.7c0-2.7,0.4-5.3,1.2-7.8
				c-1.7-1.3-3.8-2.1-6.1-2.1C99.7-34.9,95.2-30.5,95.2-25.1z"/>
			<path class="st0" d="M122.4-24.9c0-5.8-2.8-10.9-7.2-14.1c-2.8,3.9-4.5,8.8-4.5,14c0,5.3,1.7,10.1,4.5,14.1
				C119.6-14.1,122.4-19.2,122.4-24.9z"/>
			<path class="st0" d="M136-24c0-9-4.4-17.5-11.7-22.8c-3.4,1.7-6.4,4.1-8.7,7.1c4.6,3.3,7.5,8.7,7.5,14.7c0,6-2.9,11.3-7.4,14.6
				c2.6,3.4,6.2,6.1,10.3,7.8C132.3-7.9,136-15.7,136-24z"/>
		</g>
		<g>
			<path class="st1" d="M80-25C80-11.2,68.8,0,54.9,0C49.4,0,44.2-1.9,40-5c-4.2,3.1-9.3,5-15,5C11.2,0,0-11.2,0-25
				c0-13.8,11.2-25,25.1-25c5.6,0,10.8,1.8,14.9,4.9c4.2-3.1,9.4-5,15-5C68.8-50,80-38.8,80-25z M39.4-5.5c-1.6-1.3-3-2.7-4.3-4.4
				c-2.9,1.9-6.3,3-10,3C15-6.8,6.8-15,6.8-25c0-10,8.2-18.2,18.2-18.2c3.7,0,7.1,1.1,10,3c1.2-1.6,2.7-3.1,4.3-4.4
				c-4-3-8.9-4.7-14.3-4.7C11.7-49.2,0.8-38.3,0.8-25c0,13.3,10.9,24.2,24.3,24.2C30.4-0.8,35.3-2.5,39.4-5.5z M31.4-33.6
				c0.8-2.2,1.9-4.2,3.2-6c-2.7-1.8-6-2.8-9.5-2.8c-9.6,0-17.4,7.8-17.4,17.4c0,9.6,7.8,17.4,17.4,17.4c3.5,0,6.8-1,9.5-2.8
				c-1.3-1.9-2.4-3.9-3.2-6.1c-1.8,1.3-3.9,2.1-6.3,2.1c-5.9,0-10.6-4.7-10.6-10.6s4.8-10.6,10.6-10.6
				C27.4-35.6,29.6-34.9,31.4-33.6z M25.1-34.9c-5.4,0-9.8,4.4-9.8,9.8c0,5.4,4.4,9.8,9.8,9.8c2.3,0,4.4-0.8,6-2.1
				c-0.8-2.4-1.2-5-1.2-7.7c0-2.7,0.4-5.3,1.2-7.8C29.5-34.1,27.4-34.9,25.1-34.9z M35.2-10.9c4.3-3.2,7.1-8.3,7.1-14
				c0-5.8-2.8-10.9-7.2-14.1c-2.8,3.9-4.5,8.8-4.5,14C30.7-19.8,32.4-14.9,35.2-10.9z M46-2.5C52.3-7.9,56-15.7,56-24
				c0-9-4.4-17.5-11.7-22.8c-3.4,1.7-6.4,4.1-8.7,7.1c4.6,3.3,7.5,8.7,7.5,14.7c0,6-2.9,11.3-7.4,14.6C38.4-6.9,41.9-4.2,46-2.5z
				 M79.2-25c0-13.3-10.9-24.2-24.3-24.2c-3.5,0-6.8,0.7-9.8,2.1c7.3,5.4,11.6,14,11.6,23.1c0,8.4-3.6,16.3-9.9,21.8
				c2.5,0.9,5.3,1.4,8.1,1.4C68.3-0.8,79.2-11.7,79.2-25z"/>
			<path class="st0" d="M42.4-24.9c0-5.8-2.8-10.9-7.2-14.1c-2.8,3.9-4.5,8.8-4.5,14c0,5.3,1.7,10.1,4.5,14.1
				C39.6-14.1,42.4-19.2,42.4-24.9z"/>
			<path class="st0" d="M56-24c0-9-4.4-17.5-11.7-22.8c-3.4,1.7-6.4,4.1-8.7,7.1c4.6,3.3,7.5,8.7,7.5,14.7c0,6-2.9,11.3-7.4,14.6
				c2.6,3.4,6.2,6.1,10.3,7.8C52.3-7.9,56-15.7,56-24z"/>
			<path class="st0" d="M54.9-49.2c-3.5,0-6.8,0.7-9.8,2.1c7.3,5.4,11.6,14,11.6,23.1c0,8.4-3.6,16.3-9.9,21.8
				c2.5,0.9,5.3,1.4,8.1,1.4c13.4,0,24.3-10.9,24.3-24.2C79.2-38.3,68.3-49.2,54.9-49.2z"/>
		</g>
		<g>
			<path class="st1" d="M120-67c0,13.8-11.2,25-25.1,25C89.4-42,84.2-43.9,80-47c-4.2,3.1-9.3,5-15,5C51.2-42,40-53.2,40-67
				c0-13.8,11.2-25,25.1-25c5.6,0,10.8,1.8,14.9,4.9c4.2-3.1,9.4-5,15-5C108.8-92,120-80.8,120-67z M79.4-47.5
				c-1.6-1.3-3-2.7-4.3-4.4c-2.9,1.9-6.3,3-10,3C55-48.8,46.8-57,46.8-67c0-10,8.2-18.2,18.2-18.2c3.7,0,7.1,1.1,10,3
				c1.2-1.6,2.7-3.1,4.3-4.4c-4-3-8.9-4.7-14.3-4.7c-13.4,0-24.3,10.9-24.3,24.2c0,13.3,10.9,24.2,24.3,24.2
				C70.4-42.8,75.3-44.5,79.4-47.5z M71.4-75.6c0.8-2.2,1.9-4.2,3.2-6c-2.7-1.8-6-2.8-9.5-2.8c-9.6,0-17.4,7.8-17.4,17.4
				c0,9.6,7.8,17.4,17.4,17.4c3.5,0,6.8-1,9.5-2.8c-1.3-1.9-2.4-3.9-3.2-6.1c-1.8,1.3-3.9,2.1-6.3,2.1c-5.9,0-10.6-4.7-10.6-10.6
				s4.8-10.6,10.6-10.6C67.4-77.6,69.6-76.9,71.4-75.6z M65.1-76.9c-5.4,0-9.8,4.4-9.8,9.8c0,5.4,4.4,9.8,9.8,9.8
				c2.3,0,4.4-0.8,6-2.1c-0.8-2.4-1.2-5-1.2-7.7c0-2.7,0.4-5.3,1.2-7.8C69.5-76.1,67.4-76.9,65.1-76.9z M75.2-52.9
				c4.3-3.2,7.1-8.3,7.1-14c0-5.8-2.8-10.9-7.2-14.1c-2.8,3.9-4.5,8.8-4.5,14C70.7-61.8,72.4-56.9,75.2-52.9z M86-44.5
				c6.4-5.4,10-13.2,10-21.5c0-9-4.4-17.5-11.7-22.8c-3.4,1.7-6.4,4.1-8.7,7.1c4.6,3.3,7.5,8.7,7.5,14.7c0,6-2.9,11.3-7.4,14.6
				C78.4-48.9,81.9-46.2,86-44.5z M119.2-67c0-13.3-10.9-24.2-24.3-24.2c-3.5,0-6.8,0.7-9.8,2.1c7.3,5.4,11.6,14,11.6,23.1
				c0,8.4-3.6,16.3-9.9,21.8c2.5,0.9,5.3,1.4,8.1,1.4C108.3-42.8,119.2-53.7,119.2-67z"/>
			<path class="st0" d="M75.1-51.8c-2.9,1.9-6.3,3-10,3C55-48.8,46.8-57,46.8-67c0-10,8.2-18.2,18.2-18.2c3.7,0,7.1,1.1,10,3
				c1.2-1.6,2.7-3.1,4.3-4.4c-4-3-8.9-4.7-14.3-4.7c-13.4,0-24.3,10.9-24.3,24.2c0,13.3,10.9,24.2,24.3,24.2
				c5.4,0,10.3-1.7,14.3-4.7C77.8-48.7,76.3-50.2,75.1-51.8z"/>
			<path class="st0" d="M74.6-81.5c-2.7-1.8-6-2.8-9.5-2.8c-9.6,0-17.4,7.8-17.4,17.4c0,9.6,7.8,17.4,17.4,17.4c3.5,0,6.8-1,9.5-2.8
				c-1.3-1.9-2.4-3.9-3.2-6.1c-1.8,1.3-3.9,2.1-6.3,2.1c-5.9,0-10.6-4.7-10.6-10.6s4.8-10.6,10.6-10.6c2.4,0,4.6,0.8,6.3,2.1
				C72.2-77.7,73.3-79.7,74.6-81.5z"/>
			<path class="st0" d="M55.2-67.1c0,5.4,4.4,9.8,9.8,9.8c2.3,0,4.4-0.8,6-2.1c-0.8-2.4-1.2-5-1.2-7.7c0-2.7,0.4-5.3,1.2-7.8
				c-1.7-1.3-3.8-2.1-6.1-2.1C59.7-76.9,55.2-72.5,55.2-67.1z"/>
			<path class="st0" d="M82.4-66.9c0-5.8-2.8-10.9-7.2-14.1c-2.8,3.9-4.5,8.8-4.5,14c0,5.3,1.7,10.1,4.5,14.1
				C79.6-56.1,82.4-61.2,82.4-66.9z"/>
			<path class="st0" d="M96-66c0-9-4.4-17.5-11.7-22.8c-3.4,1.7-6.4,4.1-8.7,7.1c4.6,3.3,7.5,8.7,7.5,14.7c0,6-2.9,11.3-7.4,14.6
				c2.6,3.4,6.2,6.1,10.3,7.8C92.3-49.9,96-57.7,96-66z"/>
			<path class="st0" d="M94.9-91.2c-3.5,0-6.8,0.7-9.8,2.1c7.3,5.4,11.6,14,11.6,23.1c0,8.4-3.6,16.3-9.9,21.8
				c2.5,0.9,5.3,1.4,8.1,1.4c13.4,0,24.3-10.9,24.3-24.2C119.2-80.3,108.3-91.2,94.9-91.2z"/>
		</g>
		<g>
			<path class="st1" d="M160-109c0,13.8-11.2,25-25.1,25c-5.6,0-10.8-1.8-14.9-4.9c-4.2,3.1-9.3,5-15,5C91.2-84,80-95.2,80-109
				c0-13.8,11.2-25,25.1-25c5.6,0,10.8,1.8,14.9,4.9c4.2-3.1,9.4-5,15-5C148.8-134,160-122.8,160-109z M119.4-89.5
				c-1.6-1.3-3-2.7-4.3-4.4c-2.9,1.9-6.3,3-10,3c-10,0-18.2-8.2-18.2-18.2c0-10,8.2-18.2,18.2-18.2c3.7,0,7.1,1.1,10,3
				c1.2-1.6,2.7-3.1,4.3-4.4c-4-3-8.9-4.7-14.3-4.7c-13.4,0-24.3,10.9-24.3,24.2c0,13.3,10.9,24.2,24.3,24.2
				C110.4-84.8,115.3-86.5,119.4-89.5z M111.4-117.6c0.8-2.2,1.9-4.2,3.2-6c-2.7-1.8-6-2.8-9.5-2.8c-9.6,0-17.4,7.8-17.4,17.4
				c0,9.6,7.8,17.4,17.4,17.4c3.5,0,6.8-1,9.5-2.8c-1.3-1.9-2.4-3.9-3.2-6.1c-1.8,1.3-3.9,2.1-6.3,2.1c-5.9,0-10.6-4.7-10.6-10.6
				s4.8-10.6,10.6-10.6C107.4-119.6,109.6-118.9,111.4-117.6z M105.1-118.9c-5.4,0-9.8,4.4-9.8,9.8c0,5.4,4.4,9.8,9.8,9.8
				c2.3,0,4.4-0.8,6-2.1c-0.8-2.4-1.2-5-1.2-7.7c0-2.7,0.4-5.3,1.2-7.8C109.5-118.1,107.4-118.9,105.1-118.9z M115.2-94.9
				c4.3-3.2,7.1-8.3,7.1-14c0-5.8-2.8-10.9-7.2-14.1c-2.8,3.9-4.5,8.8-4.5,14C110.7-103.8,112.4-98.9,115.2-94.9z M126-86.5
				c6.4-5.4,10-13.2,10-21.5c0-9-4.4-17.5-11.7-22.8c-3.4,1.7-6.4,4.1-8.7,7.1c4.6,3.3,7.5,8.7,7.5,14.7c0,6-2.9,11.3-7.4,14.6
				C118.4-90.9,121.9-88.2,126-86.5z M159.2-109c0-13.3-10.9-24.2-24.3-24.2c-3.5,0-6.8,0.7-9.8,2.1c7.3,5.4,11.6,14,11.6,23.1
				c0,8.4-3.6,16.3-9.9,21.8c2.5,0.9,5.3,1.4,8.1,1.4C148.3-84.8,159.2-95.7,159.2-109z"/>
			<path class="st0" d="M115.1-93.8c-2.9,1.9-6.3,3-10,3c-10,0-18.2-8.2-18.2-18.2c0-10,8.2-18.2,18.2-18.2c3.7,0,7.1,1.1,10,3
				c1.2-1.6,2.7-3.1,4.3-4.4c-4-3-8.9-4.7-14.3-4.7c-13.4,0-24.3,10.9-24.3,24.2c0,13.3,10.9,24.2,24.3,24.2
				c5.4,0,10.3-1.7,14.3-4.7C117.8-90.7,116.3-92.2,115.1-93.8z"/>
			<path class="st0" d="M114.6-123.5c-2.7-1.8-6-2.8-9.5-2.8c-9.6,0-17.4,7.8-17.4,17.4c0,9.6,7.8,17.4,17.4,17.4
				c3.5,0,6.8-1,9.5-2.8c-1.3-1.9-2.4-3.9-3.2-6.1c-1.8,1.3-3.9,2.1-6.3,2.1c-5.9,0-10.6-4.7-10.6-10.6s4.8-10.6,10.6-10.6
				c2.4,0,4.6,0.8,6.3,2.1C112.2-119.7,113.3-121.7,114.6-123.5z"/>
			<path class="st0" d="M95.2-109.1c0,5.4,4.4,9.8,9.8,9.8c2.3,0,4.4-0.8,6-2.1c-0.8-2.4-1.2-5-1.2-7.7c0-2.7,0.4-5.3,1.2-7.8
				c-1.7-1.3-3.8-2.1-6.1-2.1C99.7-118.9,95.2-114.5,95.2-109.1z"/>
			<path class="st0" d="M122.4-108.9c0-5.8-2.8-10.9-7.2-14.1c-2.8,3.9-4.5,8.8-4.5,14c0,5.3,1.7,10.1,4.5,14.1
				C119.6-98.1,122.4-103.2,122.4-108.9z"/>
			<path class="st0" d="M136-108c0-9-4.4-17.5-11.7-22.8c-3.4,1.7-6.4,4.1-8.7,7.1c4.6,3.3,7.5,8.7,7.5,14.7c0,6-2.9,11.3-7.4,14.6
				c2.6,3.4,6.2,6.1,10.3,7.8C132.3-91.9,136-99.7,136-108z"/>
		</g>
		<g>
			<path class="st1" d="M80-109c0,13.8-11.2,25-25.1,25C49.4-84,44.2-85.9,40-89c-4.2,3.1-9.3,5-15,5C11.2-84,0-95.2,0-109
				c0-13.8,11.2-25,25.1-25c5.6,0,10.8,1.8,14.9,4.9c4.2-3.1,9.4-5,15-5C68.8-134,80-122.8,80-109z M39.4-89.5
				c-1.6-1.3-3-2.7-4.3-4.4c-2.9,1.9-6.3,3-10,3C15-90.8,6.8-99,6.8-109c0-10,8.2-18.2,18.2-18.2c3.7,0,7.1,1.1,10,3
				c1.2-1.6,2.7-3.1,4.3-4.4c-4-3-8.9-4.7-14.3-4.7c-13.4,0-24.3,10.9-24.3,24.2c0,13.3,10.9,24.2,24.3,24.2
				C30.4-84.8,35.3-86.5,39.4-89.5z M31.4-117.6c0.8-2.2,1.9-4.2,3.2-6c-2.7-1.8-6-2.8-9.5-2.8c-9.6,0-17.4,7.8-17.4,17.4
				c0,9.6,7.8,17.4,17.4,17.4c3.5,0,6.8-1,9.5-2.8c-1.3-1.9-2.4-3.9-3.2-6.1c-1.8,1.3-3.9,2.1-6.3,2.1c-5.9,0-10.6-4.7-10.6-10.6
				s4.8-10.6,10.6-10.6C27.4-119.6,29.6-118.9,31.4-117.6z M25.1-118.9c-5.4,0-9.8,4.4-9.8,9.8c0,5.4,4.4,9.8,9.8,9.8
				c2.3,0,4.4-0.8,6-2.1c-0.8-2.4-1.2-5-1.2-7.7c0-2.7,0.4-5.3,1.2-7.8C29.5-118.1,27.4-118.9,25.1-118.9z M35.2-94.9
				c4.3-3.2,7.1-8.3,7.1-14c0-5.8-2.8-10.9-7.2-14.1c-2.8,3.9-4.5,8.8-4.5,14C30.7-103.8,32.4-98.9,35.2-94.9z M46-86.5
				c6.4-5.4,10-13.2,10-21.5c0-9-4.4-17.5-11.7-22.8c-3.4,1.7-6.4,4.1-8.7,7.1c4.6,3.3,7.5,8.7,7.5,14.7c0,6-2.9,11.3-7.4,14.6
				C38.4-90.9,41.9-88.2,46-86.5z M79.2-109c0-13.3-10.9-24.2-24.3-24.2c-3.5,0-6.8,0.7-9.8,2.1c7.3,5.4,11.6,14,11.6,23.1
				c0,8.4-3.6,16.3-9.9,21.8c2.5,0.9,5.3,1.4,8.1,1.4C68.3-84.8,79.2-95.7,79.2-109z"/>
			<path class="st0" d="M42.4-108.9c0-5.8-2.8-10.9-7.2-14.1c-2.8,3.9-4.5,8.8-4.5,14c0,5.3,1.7,10.1,4.5,14.1
				C39.6-98.1,42.4-103.2,42.4-108.9z"/>
			<path class="st0" d="M56-108c0-9-4.4-17.5-11.7-22.8c-3.4,1.7-6.4,4.1-8.7,7.1c4.6,3.3,7.5,8.7,7.5,14.7c0,6-2.9,11.3-7.4,14.6
				c2.6,3.4,6.2,6.1,10.3,7.8C52.3-91.9,56-99.7,56-108z"/>
			<path class="st0" d="M54.9-133.2c-3.5,0-6.8,0.7-9.8,2.1c7.3,5.4,11.6,14,11.6,23.1c0,8.4-3.6,16.3-9.9,21.8
				c2.5,0.9,5.3,1.4,8.1,1.4c13.4,0,24.3-10.9,24.3-24.2C79.2-122.3,68.3-133.2,54.9-133.2z"/>
		</g>
	</g>
</pattern>
<pattern  id="SVGID_1_" xlink:href="#New_Pattern_2" patternTransform="matrix(0.3906 0 0 0.3906 -4408.2402 -4215.4956)">
</pattern>
<rect y="0" class="st2" width="31.2" height="32.8"/>
<pattern  id="SVGID_2_" xlink:href="#New_Pattern_2" patternTransform="matrix(0.3906 0 0 0.3906 -4376.9902 -4215.4956)">
</pattern>
<rect x="31.2" y="0" class="st3" width="31.2" height="32.8"/>
<pattern  id="SVGID_3_" xlink:href="#New_Pattern_2" patternTransform="matrix(0.3906 0 0 0.3906 -4345.7402 -4215.4956)">
</pattern>
<rect x="62.5" y="0" class="st4" width="31.2" height="32.8"/>
<pattern  id="SVGID_4_" xlink:href="#New_Pattern_2" patternTransform="matrix(0.3906 0 0 0.3906 -4314.4902 -4215.4956)">
</pattern>
<rect x="93.8" y="0" class="st5" width="31.2" height="32.8"/>
<pattern  id="SVGID_5_" xlink:href="#New_Pattern_2" patternTransform="matrix(0.3906 0 0 0.3906 -4408.2402 -4182.6846)">
</pattern>
<rect y="32.8" class="st6" width="31.2" height="32.8"/>
<pattern  id="SVGID_6_" xlink:href="#New_Pattern_2" patternTransform="matrix(0.3906 0 0 0.3906 -4376.9902 -4182.6846)">
</pattern>
<rect x="31.2" y="32.8" class="st7" width="31.2" height="32.8"/>
<pattern  id="SVGID_7_" xlink:href="#New_Pattern_2" patternTransform="matrix(0.3906 0 0 0.3906 -4345.7402 -4182.6846)">
</pattern>
<rect x="62.5" y="32.8" class="st8" width="31.2" height="32.8"/>
<pattern  id="SVGID_8_" xlink:href="#New_Pattern_2" patternTransform="matrix(0.3906 0 0 0.3906 -4314.4902 -4182.6846)">
</pattern>
<rect x="93.8" y="32.8" class="st9" width="31.2" height="32.8"/>
<pattern  id="SVGID_9_" xlink:href="#New_Pattern_2" patternTransform="matrix(0.3906 0 0 0.3906 -4408.2402 -4149.8735)">
</pattern>
<rect y="65.6" class="st10" width="31.2" height="32.8"/>
<pattern  id="SVGID_10_" xlink:href="#New_Pattern_2" patternTransform="matrix(0.3906 0 0 0.3906 -4376.9902 -4149.8735)">
</pattern>
<rect x="31.2" y="65.6" class="st11" width="31.2" height="32.8"/>
<pattern  id="SVGID_11_" xlink:href="#New_Pattern_2" patternTransform="matrix(0.3906 0 0 0.3906 -4345.7402 -4149.8735)">
</pattern>
<rect x="62.5" y="65.6" class="st12" width="31.2" height="32.8"/>
<pattern  id="SVGID_12_" xlink:href="#New_Pattern_2" patternTransform="matrix(0.3906 0 0 0.3906 -4314.4902 -4149.8735)">
</pattern>
<rect x="93.8" y="65.6" class="st13" width="31.2" height="32.8"/>
<pattern  id="SVGID_13_" xlink:href="#New_Pattern_2" patternTransform="matrix(0.3906 0 0 0.3906 -4408.2402 -4117.0625)">
</pattern>
<rect y="98.4" class="st14" width="31.2" height="32.8"/>
<pattern  id="SVGID_14_" xlink:href="#New_Pattern_2" patternTransform="matrix(0.3906 0 0 0.3906 -4376.9902 -4117.0625)">
</pattern>
<rect x="31.2" y="98.4" class="st15" width="31.2" height="32.8"/>
<pattern  id="SVGID_15_" xlink:href="#New_Pattern_2" patternTransform="matrix(0.3906 0 0 0.3906 -4345.7402 -4117.0625)">
</pattern>
<rect x="62.5" y="98.4" class="st16" width="31.2" height="32.8"/>
<pattern  id="SVGID_16_" xlink:href="#New_Pattern_2" patternTransform="matrix(0.3906 0 0 0.3906 -4314.4902 -4117.0625)">
</pattern>
<rect x="93.8" y="98.4" class="st17" width="31.2" height="32.8"/>
</svg>