<?xml version="1.0" encoding="UTF-8" standalone="no"?>
<svg
   version="1.0"
   width="162.91325pt"
   height="103.90958pt"
   viewBox="0 0 162.91325 103.90958"
   preserveAspectRatio="xMidYMid"
   id="svg1"
   sodipodi:docname="connaught_logo.svg"
   xml:space="preserve"
   xmlns:inkscape="http://www.inkscape.org/namespaces/inkscape"
   xmlns:sodipodi="http://sodipodi.sourceforge.net/DTD/sodipodi-0.dtd"
   xmlns="http://www.w3.org/2000/svg"
   xmlns:svg="http://www.w3.org/2000/svg"><defs
     id="defs1" /><sodipodi:namedview
     id="namedview1"
     pagecolor="#505050"
     bordercolor="#eeeeee"
     borderopacity="1"
     inkscape:showpageshadow="0"
     inkscape:pageopacity="0"
     inkscape:pagecheckerboard="0"
     inkscape:deskcolor="#505050"
     inkscape:document-units="pt"
     inkscape:zoom="1.363125"
     inkscape:cx="12.471343"
     inkscape:cy="207.24438"
     inkscape:window-width="1920"
     inkscape:window-height="991"
     inkscape:window-x="-9"
     inkscape:window-y="-9"
     inkscape:window-maximized="1"
     inkscape:current-layer="svg1" /><g
     id="g4"
     style="display:inline;stroke:#000000;stroke-opacity:1"
     transform="matrix(1.1384111,0,0,1.1384111,-37.616268,-62.982128)"><path
       style="fill:none;stroke:#000000;stroke-width:1.87161;stroke-linecap:square;stroke-opacity:1"
       id="path1"
       sodipodi:type="arc"
       sodipodi:cx="78.679504"
       sodipodi:cy="100.96287"
       sodipodi:rx="44.704906"
       sodipodi:ry="44.704906"
       sodipodi:start="0.92728643"
       sodipodi:end="5.331281"
       sodipodi:arc-type="arc"
       d="M 105.50276,136.72656 A 44.704906,44.704906 0 0 1 45.857141,131.31449 44.704906,44.704906 0 0 1 45.11997,71.428375 44.704906,44.704906 0 0 1 104.6143,64.54975"
       sodipodi:open="true" /><path
       style="fill:none;stroke:#000000;stroke-width:2.23567;stroke-linecap:square;stroke-opacity:1"
       id="path2"
       sodipodi:type="arc"
       sodipodi:cx="78.486359"
       sodipodi:cy="100.96287"
       sodipodi:rx="31.399734"
       sodipodi:ry="31.593508"
       sodipodi:start="1.0208414"
       sodipodi:end="5.256699"
       sodipodi:open="true"
       sodipodi:arc-type="arc"
       d="M 94.897392,127.89785 A 31.399734,31.593508 0 0 1 54.649427,121.52779 31.399734,31.593508 0 0 1 54.534433,80.533664 31.399734,31.593508 0 0 1 94.746019,73.935103" /><path
       style="fill:none;stroke:#000000;stroke-width:1.36558;stroke-linecap:square;stroke-opacity:1"
       id="path3"
       sodipodi:type="arc"
       sodipodi:cx="78.468552"
       sodipodi:cy="100.88861"
       sodipodi:rx="19.179409"
       sodipodi:ry="19.29777"
       sodipodi:start="0.97040554"
       sodipodi:end="5.3033426"
       sodipodi:open="true"
       sodipodi:arc-type="arc"
       d="M 89.304246,116.81149 A 19.179409,19.29777 0 0 1 64.136645,113.7127 19.179409,19.29777 0 0 1 64.017004,88.201175 19.179409,19.29777 0 0 1 89.15442,84.863555" /><circle
       style="fill:none;stroke:#000000;stroke-width:2.75823;stroke-linecap:square;stroke-opacity:1"
       id="path4"
       cx="131.30595"
       cy="101.34872"
       r="43.463531" /><path
       style="fill:none;stroke:#000000;stroke-width:2.83599;stroke-linecap:square;stroke-opacity:1"
       id="circle4"
       sodipodi:type="arc"
       sodipodi:cx="91.622375"
       sodipodi:cy="100.27881"
       sodipodi:rx="42.646542"
       sodipodi:ry="46.82888"
       sodipodi:start="5.3148359"
       sodipodi:end="1.0126343"
       sodipodi:open="true"
       sodipodi:arc-type="arc"
       d="m 115.78848,61.694082 a 42.646542,46.82888 0 0 1 18.46998,39.621548 42.646542,46.82888 0 0 1 -20.04928,38.68484" /><path
       style="fill:none;stroke:#000000;stroke-width:1.76813;stroke-linecap:square;stroke-opacity:1"
       id="ellipse4"
       sodipodi:type="arc"
       sodipodi:cx="84.364319"
       sodipodi:cy="100.8624"
       sodipodi:rx="26.001514"
       sodipodi:ry="29.855349"
       sodipodi:start="5.2222419"
       sodipodi:end="1.1046967"
       sodipodi:arc-type="arc"
       d="M 97.054329,74.804161 A 26.001514,29.855349 0 0 1 110.35961,101.51548 26.001514,29.855349 0 0 1 96.04954,127.53301"
       sodipodi:open="true" /></g></svg>
